<svg version="1.2" xmlns="http://www.w3.org/2000/svg" viewBox="0 0 841 843" width="841" height="843"><style>tspan{white-space:pre}.a{fill:#7acff5;stroke:#000}.b{font-size: 14px;fill: #000000;font-family: "Helvetica"}.c{stroke:#000}.d{fill:none;stroke:#000}.e{fill:#fff1aa;stroke:#000}.f{font-size: 13px;fill: #000000;font-family: "Helvetica"}.g{fill:none;stroke:#000;stroke-miterlimit:10}.h{fill:none}.i{font-size: 12px;fill: #000000;font-family: "Open  Sans"}.j{fill:#7acff5;stroke:#000;stroke-miterlimit:10}</style><path class="a" d="m129 1h85v40h-85z"/><text style="transform:matrix(1,0,0,1,171,26.5)" ><tspan x="-27.6" y="0" class="b">Student
</tspan></text><path class="a" d="m365.5 1h118v40h-118z"/><text style="transform:matrix(1,0,0,1,424,26.5)" ><tspan x="-47.7" y="0" class="b">Administartor
</tspan></text><path class="a" d="m620.5 1h163v40h-163z"/><text style="transform:matrix(1,0,0,1,701.5,18)" ><tspan x="-32.3" y="0" class="b">Professor
</tspan></text><text style="transform:matrix(1,0,0,1,701.5,35)" ><tspan x="-77.9" y="0" class="b">(Prüfungskommission)
</tspan></text><path class="c" d="m21.3 99c-5.6 0-10.1-4.5-10.1-10 0-5.5 4.5-10 10-10 5.6 0 10 4.5 10 10 0 5.5-4.4 10-10 10z"/><path class="d" d="m21.3 99c-5.6 0-10.1-4.5-10.1-10 0-5.5 4.5-10 10-10 5.6 0 10 4.5 10 10 0 5.5-4.4 10-10 10z"/><path class="e" d="m348.8 162c-0.1-8.3 6.7-15 14.9-15h123c8.3 0 15 6.7 15 15v10c0 8.3-6.7 15-15 15h-123c-8.2 0-15-6.7-15-15z"/><path class="d" d="m348.8 162c-0.1-8.3 6.7-15 14.9-15h123c8.3 0 15 6.7 15 15v10c0 8.3-6.7 15-15 15h-123c-8.2 0-15-6.7-15-15z"/><text style="transform:matrix(1,0,0,1,424.75,172)" ><tspan x="-63.9" y="0" class="f">Student hinzufügen
</tspan></text><path class="e" d="m348 74c0-8.3 6.7-15 15-15h123c8.3 0 15 6.7 15 15v20c0 8.3-6.7 15-15 15h-123c-8.3 0-15-6.7-15-15z"/><path class="d" d="m348 74c0-8.3 6.7-15 15-15h123c8.3 0 15 6.7 15 15v20c0 8.3-6.7 15-15 15h-123c-8.3 0-15-6.7-15-15z"/><text style="transform:matrix(1,0,0,1,424,81)" ><tspan x="-67.3" y="0" class="f">Prüfungskommission
</tspan></text><text style="transform:matrix(1,0,0,1,424,97)" ><tspan x="-36.2" y="0" class="f">hinzufügen
</tspan></text><path class="g" d="m41.3 86.5h304.5"/><path class="g" d="m334.9 92.5l12-6-12-6"/><path class="g" d="m424.9 109v35.8"/><path class="g" d="m418.9 133.9l6 12 6-12"/><path class="e" d="m77 405c0-8.3 6.7-15 15-15h151c8.3 0 15 6.7 15 15v10c0 8.3-6.7 15-15 15h-151c-8.3 0-15-6.7-15-15z"/><path class="d" d="m77 405c0-8.3 6.7-15 15-15h151c8.3 0 15 6.7 15 15v10c0 8.3-6.7 15-15 15h-151c-8.3 0-15-6.7-15-15z"/><text style="transform:matrix(1,0,0,1,167,407)" ><tspan x="-79.6" y="0" class="f">Abschlussprojekt Thema
</tspan></text><text style="transform:matrix(1,0,0,1,167,423)" ><tspan x="-23.3" y="0" class="f">wählen
</tspan></text><path class="h" d="m258 476h131.5v28h-131.5z"/><text style="transform:matrix(1,0,0,1,.5,.5)" ><tspan x="-68.2" y="0" class="i">[Ablehnen das Thema]
</tspan></text><path class="e" d="m348.8 571c-0.1-8.3 6.7-15 14.9-15h113c8.3 0 15 6.7 15 15v19c0 8.3-6.7 15-15 15h-113c-8.2 0-15-6.7-15-15z"/><path class="d" d="m348.8 571c-0.1-8.3 6.7-15 14.9-15h113c8.3 0 15 6.7 15 15v19c0 8.3-6.7 15-15 15h-113c-8.2 0-15-6.7-15-15z"/><text style="transform:matrix(1,0,0,1,419.75,577.5)" ><tspan x="-54.2" y="0" class="f">Die Vorteidigung
</tspan></text><text style="transform:matrix(1,0,0,1,419.75,593.5)" ><tspan x="-46.6" y="0" class="f">prgrammieren
</tspan></text><path class="g" d="m420 512h-0.6q-0.6 0-0.6 10v15q0 10 0 13.4v3.4"/><path class="g" d="m412.8 542.9l6 12 6-12"/><path class="h" d="m419.8 504h148.2v28h-148.3z"/><text style="transform:matrix(1,0,0,1,.5,.5)" ><tspan x="-75.6" y="0" class="i">[Akzeptieren das Thema]
</tspan></text><path class="j" d="m420.3 486.5l6.9 12.5-7 12.5-7-12.5z"/><path fill-rule="evenodd" class="g" d="m420.3 486.5l6.9 12.5-7 12.5-7-12.5z"/><path class="e" d="m1 694c0-8.3 6.7-15 15-15h227c8.3 0 15 6.7 15 15v10c0 8.3-6.7 15-15 15h-227c-8.3 0-15-6.7-15-15z"/><path class="d" d="m1 694c0-8.3 6.7-15 15-15h227c8.3 0 15 6.7 15 15v10c0 8.3-6.7 15-15 15h-227c-8.3 0-15-6.7-15-15z"/><text style="transform:matrix(1,0,0,1,129,704)" ><tspan x="-122" y="0" class="f">Verteidigungsinformationen anzeigen
</tspan></text><path class="e" d="m582.5 694c0-8.3 6.7-15 15-15h227c8.3 0 15 6.7 15 15v10c0 8.3-6.7 15-15 15h-227c-8.3 0-15-6.7-15-15z"/><path class="d" d="m582.5 694c0-8.3 6.7-15 15-15h227c8.3 0 15 6.7 15 15v10c0 8.3-6.7 15-15 15h-227c-8.3 0-15-6.7-15-15z"/><text style="transform:matrix(1,0,0,1,710.5,704)" ><tspan x="-122" y="0" class="f">Verteidigungsinformationen anzeigen
</tspan></text><path class="g" d="m134.2 719v93.8"/><path class="g" d="m128.2 801.9l6 12 6-12"/><path class="c" d="m138.8 831.7c-3.7 0-6.7-3-6.7-6.7 0-3.7 3-6.7 6.6-6.7 3.7 0 6.7 3 6.7 6.7 0 3.7-3 6.7-6.7 6.7z"/><path class="d" d="m138.8 835c-5.6 0-10.1-4.5-10.1-10 0-5.5 4.5-10 10-10 5.6 0 10 4.5 10 10 0 5.5-4.4 10-10 10z"/><path class="e" d="m629.5 777c0-8.3 6.7-15 15-15h150.5c8.3 0 15 6.7 15 15v10c0 8.3-6.7 15-15 15h-150.5c-8.3 0-15-6.7-15-15z"/><path class="d" d="m629.5 777c0-8.3 6.7-15 15-15h150.5c8.3 0 15 6.7 15 15v10c0 8.3-6.7 15-15 15h-150.5c-8.3 0-15-6.7-15-15z"/><text style="transform:matrix(1,0,0,1,719.25,787)" ><tspan x="-74.2" y="0" class="f">Verteidigung bewerten
</tspan></text><path class="g" d="m715.4 719v40.8"/><path class="g" d="m709.4 748.9l6 12 6-12"/><path class="g" d="m719.8 802v17q0 10-10 10h-557.6"/><path class="g" d="m163.1 823l-12 6 12 6"/><path class="c" d="m99.5 631h649.5v20h-649.5z"/><path class="g" d="m422.3 605v23.8"/><path class="g" d="m416.3 617.9l6 12 6-12"/><path class="g" d="m414.3 641h-274.8q-10 0-10 10v25.8"/><path class="g" d="m126 670.9l3.5 7 3.5-7"/><path class="g" d="m434.3 641h266.7q10 0 10 10v25.8"/><path class="g" d="m707.5 670.9l3.5 7 3.5-7"/><path class="c" d="m424.3 647.7c-3.7 0-6.7-3-6.7-6.7 0-3.7 3-6.7 6.6-6.7 3.7 0 6.7 3 6.7 6.7 0 3.7-3 6.7-6.7 6.7z"/><path class="d" d="m424.3 651c-5.6 0-10.1-4.5-10.1-10 0-5.5 4.5-10 10-10 5.6 0 10 4.5 10 10 0 5.5-4.4 10-10 10z"/><path class="g" d="m413.3 499h-375.5q-10 0-10-10v-69q0-10 10-10h37"/><path class="g" d="m63.9 416l12-6-12-6"/><path class="g" d="m167.5 430v17q0 10 10 10h232.5q10 0 10 10v17.8"/><path class="g" d="m414 473.9l6 12 6-12"/><path class="c" d="m58 228h724.5v10h-724.5z"/><path class="g" d="m424.8 187v15.2q0 10 0 15.3v5.3"/><path class="g" d="m418.8 211.9l5.9 12 6.1-12"/><path class="e" d="m77 284c0-8.3 6.7-15 15-15h151c8.3 0 15 6.7 15 15v10c0 8.3-6.7 15-15 15h-151c-8.3 0-15-6.7-15-15z"/><path class="d" d="m77 284c0-8.3 6.7-15 15-15h151c8.3 0 15 6.7 15 15v10c0 8.3-6.7 15-15 15h-151c-8.3 0-15-6.7-15-15z"/><text style="transform:matrix(1,0,0,1,167,294)" ><tspan x="-93.5" y="0" class="f">Profilinformationen anzeigen
</tspan></text><path class="e" d="m611.5 284c0-8.3 6.7-15 15-15h151c8.3 0 15 6.7 15 15v10c0 8.3-6.7 15-15 15h-151c-8.3 0-15-6.7-15-15z"/><path class="d" d="m611.5 284c0-8.3 6.7-15 15-15h151c8.3 0 15 6.7 15 15v10c0 8.3-6.7 15-15 15h-151c-8.3 0-15-6.7-15-15z"/><text style="transform:matrix(1,0,0,1,701.5,294)" ><tspan x="-93.5" y="0" class="f">Profilinformationen anzeigen
</tspan></text><path class="c" d="m58 350h724.5v10h-724.5z"/><path class="g" d="m701.5 228v15.2q0 10 0 15.3v5.3"/><path class="g" d="m695.5 252.9l6 12 6-12"/><path class="g" d="m701.5 309v15.2q0 10 0 15.3v5.3"/><path class="g" d="m695.5 333.9l6 12 6-12"/><path class="g" d="m167 231v15.2q0 10 0 15.3v5.3"/><path class="g" d="m161 255.9l6 12 6-12"/><path class="g" d="m167 309v15.2q0 10 0 15.3v5.3"/><path class="g" d="m161 333.9l6 12 6-12"/><path class="g" d="m167 352v15.2q0 10 0 15.3v5.3"/><path class="g" d="m161 376.9l6 12 6-12"/><path class="g" d="m41.3 86.5h304.5"/><path class="g" d="m334.9 92.5l12-6-12-6"/><path class="g" d="m424.9 109v35.8"/><path class="g" d="m418.9 133.9l6 12 6-12"/><path class="g" d="m420 512h-0.6q-0.6 0-0.6 10v15q0 10 0 13.4v3.4"/><path class="g" d="m412.8 542.9l6 12 6-12"/><path class="g" d="m134.2 719v93.8"/><path class="g" d="m128.2 801.9l6 12 6-12"/><path class="g" d="m715.4 719v40.8"/><path class="g" d="m709.4 748.9l6 12 6-12"/><path class="g" d="m719.8 802v17q0 10-10 10h-557.6"/><path class="g" d="m163.1 823l-12 6 12 6"/><path class="g" d="m422.3 605v23.8"/><path class="g" d="m416.3 617.9l6 12 6-12"/><path class="g" d="m414.3 641h-274.8q-10 0-10 10v25.8"/><path class="g" d="m126 670.9l3.5 7 3.5-7"/><path class="g" d="m434.3 641h266.7q10 0 10 10v25.8"/><path class="g" d="m707.5 670.9l3.5 7 3.5-7"/><path class="g" d="m413.3 499h-375.5q-10 0-10-10v-69q0-10 10-10h37"/><path class="g" d="m63.9 416l12-6-12-6"/><path class="g" d="m167.5 430v17q0 10 10 10h232.5q10 0 10 10v17.8"/><path class="g" d="m414 473.9l6 12 6-12"/><path class="g" d="m424.8 187v15.2q0 10 0 15.3v5.3"/><path class="g" d="m418.8 211.9l5.9 12 6.1-12"/><path class="g" d="m701.5 228v15.2q0 10 0 15.3v5.3"/><path class="g" d="m695.5 252.9l6 12 6-12"/><path class="g" d="m701.5 309v15.2q0 10 0 15.3v5.3"/><path class="g" d="m695.5 333.9l6 12 6-12"/><path class="g" d="m167 231v15.2q0 10 0 15.3v5.3"/><path class="g" d="m161 255.9l6 12 6-12"/><path class="g" d="m167 309v15.2q0 10 0 15.3v5.3"/><path class="g" d="m161 333.9l6 12 6-12"/><path class="g" d="m167 352v15.2q0 10 0 15.3v5.3"/><path class="g" d="m161 376.9l6 12 6-12"/></svg>