<svg width="200" height="162" xmlns="http://www.w3.org/2000/svg" xmlns:xlink="http://www.w3.org/1999/xlink" xml:space="preserve" overflow="hidden"><defs><clipPath id="clip0"><rect x="95" y="713" width="200" height="162"/></clipPath><linearGradient x1="61.5992" y1="110.562" x2="69.585" y2="105.843" gradientUnits="userSpaceOnUse" spreadMethod="pad" id="fill1"><stop offset="0" stop-color="#909CA9"/><stop offset="1" stop-color="#EDEDEE"/></linearGradient><linearGradient x1="61.7821" y1="21.6022" x2="68.2076" y2="21.6022" gradientUnits="userSpaceOnUse" spreadMethod="pad" id="fill2"><stop offset="0" stop-color="#939FAB"/><stop offset="1" stop-color="#DCDEE1"/></linearGradient><radialGradient cx="-14217.4" cy="7277.7" r="898.12" gradientUnits="userSpaceOnUse" spreadMethod="pad" id="fill3" gradientTransform="matrix(-0.00912177 -0.00137019 -0.00277117 0.0182435 -15.3149 -101.179)"><stop offset="0" stop-color="#EE352C"/><stop offset="1" stop-color="#A91D22"/></radialGradient></defs><g clip-path="url(#clip0)" transform="translate(-95 -713)"><path d="M108.597 62.6742 86.5121 69.8857 67.2989 78.3656 61.9237 79.7843C60.5548 81.0867 59.1194 82.4054 57.5669 83.7409 55.8643 85.2096 54.2784 86.5452 53.0597 87.5135 51.7076 88.582 49.7045 90.5849 48.6863 91.8535 47.1672 93.7564 45.9653 95.7763 45.4478 97.3289 44.5296 100.133 44.9806 102.971 46.7499 105.592 49.0201 108.93 53.544 112.336 58.8188 114.656 61.5065 115.841 66.0302 117.361 69.4354 118.211 75.0942 119.647 86.0448 121.199 92.0706 121.433 93.2891 121.483 94.9257 121.483 94.9919 121.433 95.1258 121.35 96.0603 119.564 97.1457 117.344 100.851 109.781 103.522 102.687 104.974 96.6276 105.843 92.9558 106.527 88.0647 106.977 82.2722 107.094 80.6534 107.144 75.2278 107.044 73.3914 106.894 70.3868 106.627 67.9498 106.21 65.5627 106.143 65.212 106.126 64.8948 106.16 64.8782 106.226 64.8281 106.426 64.7614 109.147 63.9766L108.597 62.6748 108.597 62.6744 108.597 62.6744ZM103.556 65.6291C103.756 65.6291 104.29 70.7537 104.424 73.9923 104.457 74.6766 104.44 75.1273 104.407 75.1273 104.274 75.1273 101.586 73.5417 99.6667 72.3399 97.997 71.2881 94.8256 69.1847 94.3245 68.7841 94.1574 68.6674 94.1744 68.6507 95.543 68.1832 97.8631 67.3985 103.372 65.6291 103.556 65.6291ZM92.3046 69.335C92.4547 69.335 92.8388 69.5518 93.7571 70.1195 97.1957 72.2728 101.87 74.877 103.873 75.7452 104.49 76.0122 104.557 75.9119 103.138 76.8803 100.1 78.9499 96.3105 80.9867 91.6703 83.0396 90.852 83.4068 90.1677 83.6909 90.1516 83.6909 90.1177 83.6909 90.2178 83.2737 90.3509 82.7725 91.4702 78.6158 92.1045 74.4095 92.1376 71.0375 92.1545 69.3681 92.1545 69.3681 92.3046 69.3183 92.2715 69.335 92.2877 69.335 92.3046 69.335ZM89.9845 70.2196C90.0846 70.3196 90.0176 74.059 89.8844 75.0772 89.5835 77.5142 89.1162 79.7843 88.3487 82.3392 88.1648 82.9557 87.9977 83.4738 87.9646 83.5069 87.8977 83.5908 85.6107 81.3539 84.8594 80.4855 83.5577 78.983 82.5393 77.4811 81.788 76.012 81.4047 75.2607 80.8035 73.792 80.8535 73.7418 81.1206 73.5582 89.9175 70.1529 89.9845 70.2196ZM79.0669 74.5096C79.0838 74.5096 79.1007 74.5096 79.1177 74.5262 79.1508 74.5596 79.2678 74.8268 79.3679 75.1272 79.9021 76.5795 81.1037 78.7159 82.139 80.0853 83.2737 81.5879 84.7593 83.1898 85.9948 84.2413 86.3951 84.5753 86.7623 84.8925 86.8123 84.9425 86.9131 85.0426 86.9462 85.0257 84.2251 86.061 81.0706 87.2626 77.6312 88.465 73.692 89.7336 72.7508 90.0369 71.8106 90.3425 70.8713 90.6519 70.7208 90.7019 70.771 90.618 71.205 89.9337 73.158 86.8793 76.1292 80.8866 77.7983 76.6463 78.0823 75.9117 78.3664 75.1774 78.4164 75.0104 78.4834 74.7766 78.5665 74.6932 78.7836 74.5763 78.8998 74.5432 79.0176 74.5096 79.0669 74.5096ZM75.7289 75.8951C75.7789 75.9287 74.9275 77.7144 74.0929 79.3501 72.4736 82.5054 70.7042 85.6107 68.3338 89.3833 67.9332 90.0338 67.5494 90.635 67.4992 90.7019 67.4159 90.8189 67.3823 90.7851 67.1153 90.2678 66.5477 89.1493 66.0802 87.7137 65.8298 86.3951 65.5794 85.0926 65.6295 82.8226 65.9134 81.4208 66.1302 80.3855 66.1137 80.4024 66.6145 80.1515 68.7511 79.0669 75.6621 75.8284 75.7289 75.8951ZM104.524 77.0639 104.524 77.7644C104.524 81.487 104.124 86.5952 103.539 90.3178 103.439 90.969 103.355 91.5025 103.338 91.5202 103.338 91.5202 102.854 91.3863 102.287 91.2192 99.7829 90.4348 97.0625 89.2825 94.6085 87.9308 92.9889 87.0463 90.635 85.5937 90.7019 85.5268 90.7189 85.5106 91.4201 85.1427 92.2376 84.7093 95.5099 83.0065 98.6475 81.1699 101.369 79.3509 102.387 78.6666 103.923 77.5651 104.257 77.2641L104.524 77.0639ZM63.1256 82.0043C63.1923 82.0043 63.1756 82.1383 63.0754 82.7387 63.0086 83.1728 62.9253 83.9742 62.8921 84.5253 62.7582 86.9624 63.1591 88.7652 64.361 91.2354 64.6948 91.9205 64.9621 92.4878 64.9451 92.504 64.8282 92.6048 53.7778 95.8432 50.3054 96.7947 49.2706 97.0779 48.3693 97.3289 48.3022 97.345 48.1856 97.3789 48.1688 97.362 48.2188 97.0779 48.6027 94.6247 50.4724 91.4194 53.0764 88.7152 54.8125 86.9124 56.1981 85.8609 58.5684 84.5084 60.2711 83.54 62.8919 82.0882 63.0922 82.0212 63.0923 82.0043 63.1089 82.0043 63.1256 82.0043ZM89.1662 86.6622C89.1832 86.6452 89.5835 86.8623 90.0676 87.1464 93.6401 89.2163 98.6144 91.1361 102.854 92.1206L103.238 92.2038 102.704 92.504C100.484 93.7394 93.1891 96.7777 85.7277 99.5658 84.6423 99.9661 83.5746 100.366 83.3737 100.45 83.1736 100.533 82.9896 100.583 82.9896 100.567 82.9896 100.55 83.2906 99.9661 83.6739 99.2479 85.7608 95.3421 87.8646 90.5849 88.9322 87.2795 89.0662 86.9624 89.1493 86.6791 89.1662 86.6622ZM86.5121 87.5297C86.529 87.5467 86.3958 87.8969 86.2288 88.2979 84.7762 91.8196 82.8734 95.6592 80.4363 99.9661 79.8189 101.068 79.3009 101.953 79.2839 101.953 79.2678 101.953 78.7667 101.652 78.1655 101.285 74.6267 99.1147 71.4886 96.4444 69.4355 93.8565L69.1349 93.4893 70.6538 93.0721C76.0958 91.5864 80.7196 89.9837 85.3105 88.0147 85.9617 87.7476 86.4959 87.5297 86.5121 87.5297ZM103.005 93.2891C103.005 93.2891 103.021 93.3061 103.005 93.2891 103.021 93.6732 102.17 97.1118 101.469 99.5989 100.884 101.685 100.383 103.322 99.4658 106.209 99.0655 107.478 98.7152 108.53 98.6983 108.53 98.6814 108.53 98.5813 108.513 98.4812 108.48 93.5231 107.578 89.0831 106.326 84.9102 104.657 83.7409 104.189 82.072 103.438 81.972 103.355 81.9389 103.321 82.9403 102.854 84.2089 102.303 91.8042 98.9808 99.6828 95.2082 102.387 93.5893 102.704 93.3892 102.954 93.2891 103.005 93.2891ZM64.9285 94.5908C64.9619 94.6247 62.8419 97.6791 59.8704 101.836 58.8356 103.288 57.6337 104.99 57.1831 105.625 56.7323 106.26 56.048 107.261 55.664 107.862L54.9626 108.947 54.2114 108.313C53.3266 107.578 51.7911 106.009 51.1067 105.141 49.671 103.355 48.703 101.469 48.319 99.7498 48.1354 98.9485 48.1354 98.5474 48.3021 98.4974 48.5524 98.4304 53.0095 97.3789 57.1829 96.4105 59.5033 95.8763 62.1906 95.242 63.1588 95.0088 64.1271 94.7748 64.9119 94.5908 64.9285 94.5908ZM67.0651 95.4091 67.5991 96.0103C70.0031 98.6975 72.4569 100.684 75.4282 102.42 75.9625 102.721 76.3631 102.987 76.3295 103.004 76.213 103.088 66.0134 106.71 61.2894 108.346 58.6353 109.281 56.4484 110.032 56.432 110.032 56.4153 110.032 56.265 109.932 56.0978 109.815L55.7975 109.598 56.2815 108.897C57.8506 106.627 59.8206 104.14 64.1106 98.9646L67.0651 95.4091ZM80.3863 104.94C80.4024 104.924 81.1368 105.191 82.0382 105.525 84.2089 106.343 85.9278 106.86 88.2317 107.444 91.0691 108.163 95.1758 108.864 97.5968 109.064 97.9639 109.097 98.1641 109.131 98.0971 109.181 97.9801 109.247 95.5268 110.065 93.7241 110.633 90.852 111.534 82.089 114.121 74.9442 116.175 73.6255 116.559 72.4903 116.876 72.4235 116.893 72.2568 116.926 71.7057 116.776 71.7057 116.709 71.7057 116.675 72.1063 116.158 72.5905 115.591 74.9941 112.72 77.3811 109.514 79.3679 106.477 79.9182 105.642 80.3863 104.957 80.3863 104.94ZM77.448 105.024C77.465 105.041 76.2795 106.944 74.2099 110.216 73.3249 111.601 72.34 113.17 71.9894 113.721 71.6555 114.255 71.1548 115.09 70.8711 115.557L70.387 116.408 70.1366 116.342C69.5355 116.175 65.3123 114.689 64.1938 114.238 62.8083 113.687 61.3727 113.02 60.3043 112.453 58.969 111.734 57.2999 110.666 57.4333 110.633 57.4666 110.617 59.7536 109.999 62.5077 109.247 69.8193 107.26 73.8755 106.109 76.5299 105.274 77.0139 105.124 77.4311 105.007 77.448 105.024ZM98.2303 109.898 98.2472 109.898C98.3142 110.065 95.61 117.577 94.6247 119.947 94.4076 120.481 94.3245 120.615 94.2075 120.598 93.9242 120.582 90.0014 120.031 87.6136 119.681 83.4576 119.046 76.4798 117.827 74.7272 117.427L74.3266 117.344 76.8135 116.776C82.1552 115.574 84.7262 114.923 87.3303 114.121 90.6188 113.12 93.8742 111.868 97.1618 110.333 97.6799 110.099 98.114 109.915 98.2303 109.898Z" fill="url(#fill1)" transform="matrix(1 0 0 1.00198 121.994 701.785)"/><path d="M85.8278 11.1935C85.4606 11.1437 79.5349 13.2804 75.7121 14.8326 70.5538 16.9362 66.5478 18.9394 64.0771 20.6751 63.1592 21.3264 62.0072 22.478 61.8238 22.9287 61.7571 23.0956 61.7235 23.2959 61.7235 23.4962L63.9605 25.6162 69.2853 27.3189 81.955 29.5892 96.4444 32.0764 96.5945 30.8245C96.5445 30.8245 96.5114 30.8079 96.4613 30.8079L94.5585 30.5073 94.1744 29.8229C92.2045 26.3507 90.0345 22.044 88.766 19.1394 87.7814 16.8858 86.8462 14.282 86.3289 12.4123 86.0448 11.2772 86.0117 11.2105 85.8285 11.1938L85.8285 11.1934 85.8278 11.1934ZM85.5606 12.0451 85.5776 12.0451C85.5937 12.0616 85.6607 12.5293 85.7277 13.0798 86.011 15.4172 86.529 17.6704 87.3473 20.1076 87.9646 21.9439 87.9646 21.8438 87.2472 21.6267 85.5445 21.1594 77.9161 19.8407 72.3904 19.0728 71.5056 18.9559 70.7544 18.8391 70.7544 18.8225 70.6876 18.7557 74.7438 16.6356 76.53 15.8011 78.8167 14.7492 85.0934 12.1285 85.5606 12.0451ZM69.4688 19.5234 70.1201 19.7402C73.6587 20.9423 82.5555 22.645 87.4635 23.0456 88.0147 23.0957 88.4819 23.1459 88.4989 23.1459 88.515 23.1625 88.0478 23.4129 87.4466 23.6966 85.0765 24.8818 82.4723 26.3341 80.6695 27.4526 80.1361 27.7863 79.6511 28.0536 79.5849 28.0536 79.518 28.0536 79.1677 27.9867 78.8005 27.9366L78.1324 27.8363 76.4635 26.2003C73.5255 23.346 71.2218 21.1426 70.3371 20.3078L69.4688 19.5234ZM68.8013 20.0408 71.155 22.9788C72.4402 24.5981 73.7422 26.1838 74.0263 26.5342 74.3098 26.885 74.5436 27.1689 74.527 27.1855 74.4602 27.2355 71.1218 26.5844 69.3521 26.1839 67.5326 25.7665 66.7815 25.5662 65.6631 25.2158L64.7449 24.9152 64.7449 24.6813C64.7616 23.5629 66.1806 21.8937 68.5843 20.1912L68.8013 20.0408ZM88.7991 24.0471C88.866 24.0471 88.9492 24.1973 89.1493 24.648 89.7174 25.8999 91.4871 29.272 91.9205 29.9229 92.0544 30.1402 92.2877 30.1568 89.9345 29.7728 84.2759 28.8545 82.4562 28.5544 82.4562 28.521 82.4562 28.5043 82.6232 28.3874 82.8403 28.2705 84.593 27.3025 86.362 26.0671 87.9315 24.7483 88.3157 24.4311 88.6659 24.1307 88.7321 24.0805 88.749 24.0471 88.7829 24.0305 88.7991 24.0471Z" fill="url(#fill2)" transform="matrix(1 0 0 1.00198 121.994 701.785)"/><path d="M61.9403 22.695C61.9403 22.695 61.5732 23.2794 61.9237 24.1475 62.141 24.6815 62.7752 25.3324 63.4928 26.0003 63.4928 26.0003 70.9211 33.2449 71.8226 34.28 75.9288 39.0206 77.7152 43.6947 77.8822 50.1382 77.9823 54.278 77.1971 57.917 75.2445 62.1403 71.7724 69.7189 64.4441 78.0823 53.1431 87.3634L54.796 86.8123C55.8643 86.011 57.3166 85.1604 60.7218 83.2906 68.584 78.983 77.4311 75.0271 88.2818 70.9541 103.906 65.0781 129.596 58.2005 144.219 55.9639L145.738 55.7301 145.504 55.3628C144.169 53.2928 143.251 52.0076 142.149 50.6388 138.944 46.6659 135.055 43.4443 130.297 40.7734 123.754 37.1178 115.29 34.2634 104.574 32.1433 102.554 31.7425 98.1133 30.9748 94.5077 30.4239 86.8623 29.239 81.9212 28.4209 76.4798 27.4861 74.5268 27.1521 71.6053 26.6514 69.669 26.2342 68.6674 26.017 66.7479 25.5664 65.2456 25.0489 64.0437 24.5813 62.3075 24.1139 61.9403 22.695ZM66.2473 26.8683C66.2638 26.8519 66.5308 26.9517 66.8816 27.0686 67.5159 27.2854 68.3337 27.5359 69.3022 27.8031 70.0349 28.0047 70.7693 28.1994 71.5056 28.3873 72.5071 28.6376 73.3416 28.8714 73.3583 28.8714 73.4753 28.9883 75.1614 34.3797 75.7289 36.4497 75.9456 37.2344 76.1129 37.902 76.0962 37.902 76.079 37.9189 75.8957 37.635 75.6787 37.2511 73.7256 33.8123 70.6374 30.3235 67.0651 27.519 66.5979 27.1855 66.2473 26.885 66.2473 26.8683ZM74.4601 29.1385C74.5436 29.1385 74.9109 29.1887 75.3614 29.2887 78.1993 29.923 83.2906 30.8912 86.546 31.4422 87.0963 31.5255 87.5305 31.6259 87.5305 31.6591 87.5305 31.6926 87.3303 31.8093 87.0794 31.943 86.529 32.2266 84.309 33.5452 83.5746 34.0461 81.721 35.2814 80.0522 36.6168 78.8506 37.8186 78.3664 38.3028 77.9484 38.7034 77.9484 38.7034 77.9484 38.7034 77.8491 38.4197 77.7652 38.0689 77.1648 35.7486 75.9123 32.3098 74.7772 29.8895 74.5935 29.5057 74.4432 29.1551 74.4432 29.1218 74.4432 29.1552 74.4432 29.1385 74.4601 29.1385ZM88.9161 31.8929C89.0161 31.9261 89.1832 32.4937 89.5173 33.7456 90.1346 36.1662 90.4187 38.8704 90.3186 41.391 90.2847 42.0921 90.2516 42.7431 90.2178 42.8267L90.1677 42.9935 89.3002 42.7098C87.5135 42.1423 84.6092 41.2907 82.1221 40.5898 80.7034 40.2058 79.5518 39.8553 79.5518 39.8219 79.5518 39.7216 81.6217 37.6518 82.5062 36.8673 84.192 35.3815 88.766 31.8427 88.9161 31.8929ZM90.0676 32.0596C90.1177 32.0098 96.9786 33.1947 100.1 33.7957 102.421 34.2463 105.792 34.9475 105.993 35.0311 106.093 35.0644 105.742 35.2647 104.624 35.7654 100.217 37.752 96.9448 39.5379 93.6902 41.7082 92.8388 42.2757 92.1214 42.7431 92.1045 42.7431 92.0875 42.7431 92.0714 42.2591 92.0714 41.6748 92.0714 38.5033 91.4371 35.2982 90.2678 32.594 90.1516 32.3269 90.0507 32.0765 90.0676 32.0596ZM107.812 35.5653C107.862 35.6153 107.645 36.9676 107.445 37.7687 106.844 40.2559 105.225 43.9453 103.238 47.4172 102.888 48.0348 102.571 48.5357 102.537 48.5523 102.504 48.5689 102.054 48.3184 101.536 48.018 99.5997 46.8829 97.3959 45.8146 94.9919 44.8129 94.3245 44.5292 93.7402 44.2954 93.7233 44.2623 93.6063 44.162 98.9816 40.6064 101.82 38.9038 104.073 37.535 107.745 35.4984 107.812 35.5653ZM109.081 35.7655C109.231 35.7655 112.269 36.6002 113.855 37.0676 117.778 38.2362 122.285 39.8887 125.223 41.2241L126.441 41.7752 125.59 41.9753C118.412 43.6278 112.269 45.531 106.343 47.9347 105.859 48.135 105.425 48.302 105.392 48.302 105.358 48.302 105.525 47.9181 105.742 47.4505 107.528 43.6613 108.681 39.7051 108.964 36.333 108.981 36.0157 109.031 35.7655 109.081 35.7655ZM78.8336 42.7098C78.8837 42.6596 81.2038 43.2106 82.4562 43.5609 84.359 44.0952 88.3988 45.4472 88.3988 45.5475 88.3988 45.5641 87.9477 45.9481 87.4135 46.4156 85.2273 48.2351 83.1236 50.1546 80.6026 52.5918 79.8513 53.3098 79.2177 53.894 79.1847 53.894 79.1508 53.894 79.1346 53.7936 79.1508 53.6602 79.5349 50.8557 79.4518 47.2501 78.9168 43.5944 78.8667 43.1269 78.8167 42.7264 78.8336 42.7098ZM127.593 42.76C127.626 42.7932 126.525 44.5292 125.823 45.514 124.823 46.9495 123.353 48.8529 120.031 53.026 118.279 55.2293 116.308 57.7167 115.658 58.5513 114.99 59.3859 114.439 60.0868 114.422 60.0868 114.405 60.0868 114.189 59.7865 113.955 59.4194 112.085 56.6149 109.848 54.161 107.194 51.9576 106.694 51.5401 106.143 51.0894 105.96 50.9559 105.776 50.8224 105.625 50.6889 105.625 50.6722 105.625 50.6223 108.463 49.4034 110.617 48.5356 114.389 46.9997 119.53 45.1636 123.386 43.9783 125.406 43.3441 127.56 42.7264 127.593 42.76ZM128.879 43.0936C128.945 43.0771 129.346 43.2774 129.83 43.5609 133.887 45.8812 137.86 48.8694 140.998 51.9409 141.882 52.809 144.069 55.0792 144.035 55.0959 144.035 55.0959 143.268 55.1626 142.367 55.2293 135.339 55.7636 126.341 57.2491 117.695 59.3356 117.11 59.469 116.593 59.5859 116.559 59.5859 116.526 59.5859 117.177 58.935 117.995 58.1505 123.07 53.2596 125.39 50.1714 128.127 44.6626 128.511 43.8449 128.846 43.1438 128.879 43.0936 128.862 43.0936 128.862 43.0936 128.879 43.0936ZM91.7034 46.8998C91.9374 46.9496 94.1074 47.9683 95.7432 48.786 97.2458 49.5369 99.4996 50.739 99.6159 50.839 99.6328 50.8557 98.8315 51.273 97.8469 51.7572 94.7086 53.3263 92.0213 54.8118 89.2163 56.5145 88.4149 56.9987 87.7476 57.3996 87.7306 57.3996 87.6644 57.3996 87.6806 57.3324 88.1317 56.5145 89.6343 53.7772 90.8359 50.5053 91.5202 47.3169 91.5872 47.0666 91.6534 46.8998 91.7034 46.8998ZM89.5334 47.3003C89.5835 47.3504 89.0161 49.4035 88.6659 50.522 87.9808 52.642 86.8292 55.2961 85.7107 57.2993 85.4436 57.7664 85.0434 58.4509 84.8263 58.8348L84.4091 59.5025 83.4746 58.6013C82.3892 57.5496 81.504 56.8986 80.3693 56.3142 79.9182 56.0807 79.568 55.8802 79.568 55.847 79.568 55.7135 82.4223 53.1261 84.6092 51.2565 86.178 49.9043 89.4834 47.2502 89.5334 47.3003ZM102.805 52.7589 103.623 53.2929C105.492 54.5117 107.695 56.1307 109.381 57.5496 110.333 58.334 112.169 59.9868 112.536 60.3874L112.737 60.6046 111.385 60.9884C103.74 63.1082 97.83 64.9946 90.9359 67.532 90.1677 67.8157 89.5173 68.0494 89.4665 68.0494 89.3672 68.0494 89.2832 68.1328 91.0029 66.5469 95.4098 62.4909 99.3157 58.0169 102.22 53.6601L102.805 52.7589ZM99.3157 53.6269C99.3488 53.6602 97.0625 56.8818 95.6931 58.7014 94.0574 60.8715 91.153 64.5105 89.1493 66.8807 88.3149 67.8657 87.5975 68.6836 87.5644 68.7004 87.5135 68.717 87.4974 68.4667 87.4974 68.0827 87.4974 66.0627 86.9801 63.9093 86.0779 62.0733 85.6946 61.3054 85.6276 61.1218 85.7115 61.0384 86.0279 60.7545 90.8859 57.9835 93.9573 56.331 96.0272 55.2293 99.2656 53.5935 99.3157 53.6269ZM78.2155 58.8017C78.2663 58.8017 78.6497 59.0018 79.0838 59.2357 80.1522 59.8199 81.1037 60.4709 81.955 61.1721 81.9881 61.2054 81.5548 61.5561 80.9867 61.9731 79.4009 63.1082 76.9977 64.9279 75.5954 66.0464 74.1261 67.2149 74.0764 67.2482 74.2431 66.9979 75.345 65.3119 75.8956 64.3604 76.4801 63.1419 76.9977 62.057 77.515 60.7715 77.8822 59.6531 78.0154 59.1689 78.1824 58.8017 78.2155 58.8017ZM83.8418 63.2085C83.9249 63.192 84.025 63.342 84.476 64.0099 85.4275 65.4285 86.1618 67.3317 86.3458 68.8674L86.3789 69.2014 84.0919 70.0862C80.0021 71.6718 76.2297 73.2411 73.6753 74.4094 72.9577 74.7434 71.7057 75.3442 70.8879 75.7451 70.0699 76.1621 69.4022 76.4794 69.4022 76.4627 69.4022 76.4461 69.9195 76.0622 70.5538 75.5946 75.5453 71.9724 79.8682 67.9994 83.1066 64.0266 83.4576 63.6091 83.7748 63.2252 83.8079 63.2085L83.8418 63.2085ZM81.2538 63.8429C81.3208 63.9096 79.4179 66.0629 78.1162 67.3816 74.8943 70.6703 71.7059 73.2411 67.7496 75.7451 67.2488 76.0622 66.7982 76.3458 66.748 76.3794 66.6311 76.4461 66.7813 76.2791 68.5174 74.3928 69.6193 73.2075 70.4538 72.206 71.4053 70.9709 72.0396 70.1531 72.1565 70.0362 73.0748 69.3849 75.5286 67.6154 81.1876 63.776 81.2538 63.8429Z" fill="url(#fill3)" transform="matrix(1 0 0 1.00198 121.994 701.785)"/><path d="M35.9515 121.77C35.6436 121.77 35.3355 121.799 35.0303 121.799 28.8106 122.131 24.6157 124.868 22.163 130.213 20.0653 135.048 20.2943 141.367 22.1865 146.23 24.3869 150.984 27.9425 153.493 33.8773 154.44 35.133 154.645 35.975 155.334 38.407 158.173L41.3995 161.68 46.8269 161.68 43.218 158.042C41.2231 156.047 39.6096 154.31 39.6096 154.158 39.6096 154.005 40.3727 153.671 41.2964 153.39 44.3417 152.467 46.8706 150.115 48.6396 146.509 50.0713 143.614 50.2768 142.719 50.482 139.117 51.0189 128.394 45.3655 121.69 35.9512 121.767L35.9515 121.77ZM40.7099 149.81C38.0695 151.089 34.2355 151.344 31.7329 150.427 29.1453 149.476 26.64 146.789 25.5132 143.747 24.2606 140.42 24.4394 134.282 25.8712 131.519 28.1741 127.118 31.2195 125.094 35.6698 125.094 42.2706 125.094 46.0257 129.137 46.5157 136.735 46.903 143.077 44.7789 147.836 40.7127 149.807L40.7099 149.81ZM134.465 130.929C132.189 130.929 130.446 131.85 129.273 133.666L128.351 135.104 128.351 131.366 124.412 131.366 124.412 153.779 128.349 153.779 128.349 146.616C128.349 140.064 128.431 139.299 129.346 137.506 130.608 135.048 132.778 133.822 134.876 134.409L136.284 134.819 136.284 130.935 134.465 130.935 134.465 130.929ZM111.319 130.723C110.547 130.723 109.728 130.826 108.913 131.005 103.641 132.384 100.669 137.43 100.851 142.622 100.851 146.971 101.696 149.145 103.794 151.424 108.092 154.95 111.979 155.231 117.224 153.34 118.119 152.958 119.093 152.519 119.093 152.519L119.093 148.992 117.224 149.96C112.979 151.808 109.781 151.808 107.22 149.632 105.586 147.968 104.867 145.973 104.536 143.697L120.422 143.697 120.422 140.674C120.422 134.514 116.714 130.624 111.315 130.723L111.319 130.723ZM104.894 140.551C104.894 140.551 105.48 136.709 107.657 135.2 108.705 134.461 109.907 134.103 111.084 134.103 112.263 134.103 113.44 134.485 114.411 135.227 116.406 136.761 116.74 140.523 116.74 140.523L104.894 140.523 104.894 140.551 104.894 140.551ZM9.90879 136.509C5.63745 133.921 3.74224 132.055 3.97399 129.855 4.63688 123.768 12.1591 124.61 16.3248 126.913L16.3544 122.817C16.3544 122.817 14.0513 121.82 10.7508 121.767 5.68723 121.691 2.41321 123.351 0.879079 126.731-1.37422 131.718 0.620956 135.479 7.83217 139.675 11.8806 142.03 13.67 144.075 13.67 146.305 13.67 150.91 8.11654 152.519 2.3871 149.629 1.20796 149.042 0.210368 148.552 0.157607 148.552-0.0478908 149.857 0.0580371 152.981 0.0580371 152.981 0.0580371 152.981 1.81836 153.721 4.45844 154.231 11.0062 155.537 16.9648 152.464 17.528 147.478 18.018 142.796 16.3249 140.34 9.90906 136.506L9.90879 136.509ZM169.336 130.671C168.567 130.671 167.752 130.776 166.901 130.955 161.634 132.334 158.669 137.38 158.87 142.574 158.87 146.915 159.713 149.069 161.81 151.344 166.108 154.874 169.996 155.158 175.268 153.264 176.16 152.882 177.131 152.448 177.131 152.448L177.131 148.916 175.265 149.89C171.011 151.733 167.812 151.733 165.261 149.556 163.617 147.894 162.904 145.923 162.573 143.621L178.432 143.621 178.432 140.599C178.432 134.467 174.724 130.574 169.326 130.677L169.336 130.671ZM162.911 140.498C162.911 140.498 163.504 136.662 165.678 135.124 166.722 134.382 167.925 134.024 169.1 134.024 170.275 134.024 171.457 134.405 172.428 135.15 174.422 136.685 174.758 140.473 174.758 140.473L162.914 140.473 162.911 140.498ZM90.6944 136.559C86.4231 133.977 84.5335 132.105 84.7624 129.905 85.4253 123.814 92.9477 124.66 97.1134 126.963L97.1429 122.867C97.1429 122.867 94.8398 121.87 91.5393 121.823 86.4757 121.746 83.2017 123.407 81.6647 126.786 79.4145 131.774 81.4358 135.535 88.6233 139.73 92.6662 142.083 94.4556 144.101 94.4556 146.331 94.4556 150.937 88.905 152.571 83.1754 149.655 82.002 149.067 81.0046 148.584 80.9459 148.584 80.7404 149.889 80.8464 153.014 80.8464 153.014 80.8464 153.014 82.5859 153.727 85.2174 154.264 91.7713 155.572 97.7326 152.504 98.2931 147.516 98.7801 142.856 97.0903 140.401 90.6945 136.564L90.6945 136.559ZM192.486 130.876C190.209 130.876 188.446 131.8 187.293 133.616L186.371 135.048 186.371 131.316 182.431 131.316 182.431 153.724 186.368 153.724 186.368 146.561C186.368 140.011 186.448 139.243 187.366 137.453 188.627 134.998 190.799 133.769 192.896 134.359L194.304 134.769 194.304 130.876 192.486 130.876ZM59.3625 136.429 59.3625 122.154 55.3904 122.154 55.3904 153.774 72.0951 153.774 72.0951 150.039 59.3626 150.039 59.3626 136.429ZM151.223 140.88 147.949 149.399 144.801 140.833 141.602 131.34 137.537 131.34C140.171 138.809 143.038 146.408 145.927 153.774 147.18 153.804 148.436 153.774 149.688 153.774L154.109 142.673 158.613 131.343 154.725 131.343C154.725 131.343 153.01 135.843 151.22 140.883L151.223 140.88ZM68.5156 113.538C69.1552 113.538 69.689 113.333 70.1291 112.893 70.5631 112.458 70.792 111.948 70.792 111.308 70.792 110.669 70.5631 110.135 70.1291 109.724 69.689 109.313 69.1814 109.108 68.5448 109.108 67.8996 109.108 67.3655 109.313 66.9313 109.747 66.4913 110.182 66.2918 110.716 66.2918 111.332 66.2918 111.977 66.4973 112.511 66.9313 112.916 67.3421 113.327 67.8761 113.532 68.5156 113.532L68.5156 113.538ZM67.1075 109.9C67.4888 109.519 67.9524 109.343 68.5449 109.343 69.1024 109.343 69.5661 109.519 69.9534 109.9 70.3347 110.281 70.5401 110.745 70.5401 111.308 70.5401 111.871 70.3347 112.359 69.9534 112.74 69.5662 113.121 69.1024 113.303 68.5449 113.303 67.9788 113.303 67.5181 113.127 67.1369 112.74 66.7555 112.359 66.5502 111.871 66.5502 111.308 66.5502 110.745 66.7262 110.282 67.1075 109.9ZM68.0549 111.514 68.313 111.514C68.4951 111.514 68.674 111.69 68.8265 112.024L69.1348 112.716 69.6187 112.716 69.2374 111.947C69.082 111.64 68.9295 111.461 68.7504 111.411 68.9763 111.358 69.1552 111.282 69.2844 111.129 69.4132 110.997 69.4603 110.818 69.4603 110.615 69.4603 110.381 69.3869 110.205 69.2316 110.076 69.0555 109.929 68.7738 109.85 68.4099 109.85L67.5947 109.85 67.5947 112.716 68.0053 112.716 68.0053 111.513 68.0549 111.514ZM68.0549 110.182 68.413 110.182C68.6712 110.182 68.8531 110.235 68.9528 110.311 69.0497 110.387 69.0761 110.487 69.0761 110.669 69.0761 111 68.8704 111.156 68.4893 111.156L68.0494 111.156 68.0494 110.182 68.0549 110.182ZM2.43945 111.258C2.43945 110.261 2.41023 109.519 2.38669 109.082L2.41023 109.082C2.51278 109.598 2.639 109.982 2.74168 110.237L6.55535 118.757 7.19498 118.757 11.0087 110.161C11.1116 109.927 11.2143 109.574 11.3404 109.084L11.3696 109.084C11.2934 109.935 11.267 110.675 11.267 111.264L11.267 118.783 12.5723 118.783 12.5723 107.606 10.9353 107.606 7.4297 115.38C7.3005 115.688 7.12152 116.149 6.89275 116.759L6.83972 116.759C6.76355 116.457 6.58457 115.996 6.32943 115.433L2.90267 107.579 1.16318 107.579 1.16318 118.757 2.41875 118.757 2.41875 111.264 2.43945 111.258ZM15.4329 111.279 16.5596 111.279 16.5596 118.241 15.4329 118.241 15.4329 111.279ZM15.9962 108.727C16.231 108.727 16.4305 108.647 16.5829 108.492 16.7385 108.339 16.8413 108.14 16.8413 107.905 16.8413 107.676 16.7649 107.471 16.586 107.319 16.4276 107.163 16.2251 107.084 15.9933 107.084 15.7647 107.084 15.5594 107.163 15.4065 107.319 15.2514 107.471 15.1485 107.676 15.1485 107.905 15.1485 108.161 15.2278 108.339 15.4065 108.492 15.5829 108.647 15.7646 108.727 15.9933 108.727L15.9962 108.727ZM24.5922 118.393 24.5922 117.167C23.976 117.628 23.3129 117.857 22.6265 117.857 21.8053 117.857 21.139 117.575 20.652 117.035 20.1681 116.501 19.91 115.759 19.91 114.835 19.91 113.867 20.1681 113.098 20.7019 112.511 21.2153 111.948 21.8815 111.666 22.6971 111.666 23.363 111.666 24.0022 111.872 24.5923 112.283L24.5923 110.977C24.0555 110.696 23.4424 110.566 22.7499 110.566 21.4706 110.566 20.4734 110.977 19.7283 111.77 18.9888 112.562 18.6075 113.638 18.6075 114.938 18.6075 116.094 18.9389 117.065 19.6286 117.807 20.3472 118.57 21.2658 118.957 22.3922 118.957 23.2631 118.933 23.976 118.751 24.5922 118.393ZM27.8161 114.682C27.8161 113.764 28.0215 113.022 28.4029 112.511 28.761 112.051 29.195 111.819 29.7084 111.819 30.1426 111.819 30.4505 111.898 30.6763 112.077L30.6763 110.745C30.5005 110.669 30.2452 110.642 29.9137 110.642 29.4531 110.642 29.0426 110.797 28.6817 111.082 28.3003 111.384 27.9953 111.845 27.8163 112.432L27.7871 112.432 27.7871 110.798 26.5109 110.798 26.5109 118.777 27.7899 118.777 27.7899 114.682 27.8161 114.682ZM35.1593 118.936C36.3622 118.936 37.3303 118.549 38.0489 117.78 38.7646 117.017 39.1226 115.99 39.1226 114.711 39.1226 113.406 38.7942 112.408 38.1252 111.666 37.4623 110.924 36.5409 110.566 35.338 110.566 34.135 110.566 33.1669 110.924 32.4483 111.616 31.6797 112.379 31.2748 113.456 31.2748 114.838 31.2748 116.04 31.6034 117.038 32.296 117.78 33.0116 118.549 33.9593 118.933 35.1593 118.933L35.1593 118.936ZM33.3404 112.435C33.8274 111.921 34.4671 111.666 35.259 111.666 36.0807 111.666 36.6966 111.921 37.1543 112.435 37.6148 112.972 37.8438 113.738 37.8438 114.761 37.8438 115.735 37.6383 116.501 37.2041 117.014 36.7701 117.551 36.1305 117.836 35.2853 117.836 34.464 117.836 33.8274 117.551 33.3404 117.014 32.8564 116.475 32.6246 115.735 32.6246 114.761 32.5748 113.793 32.8301 113.001 33.3404 112.435ZM44.7233 118.241C45.2102 117.807 45.4686 117.273 45.4686 116.603 45.4686 116.017 45.263 115.53 44.8818 115.145 44.5706 114.838 44.0898 114.559 43.3944 114.277 42.7781 114.019 42.3968 113.79 42.1913 113.611 41.9861 113.406 41.8599 113.151 41.8599 112.79 41.8599 112.458 41.9891 112.203 42.2415 111.998 42.4997 111.793 42.8283 111.693 43.2683 111.693 43.9578 111.693 44.5473 111.875 45.087 112.259L45.087 110.98C44.5707 110.722 44.0104 110.599 43.3708 110.599 42.5494 110.599 41.8571 110.825 41.3464 111.261 40.8094 111.696 40.5544 112.259 40.5544 112.922 40.5544 113.509 40.7303 113.996 41.0646 114.354 41.3462 114.659 41.8277 114.97 42.4963 115.248 43.136 115.53 43.5702 115.785 43.8018 115.99 44.0305 116.196 44.1332 116.451 44.1332 116.753 44.1332 117.498 43.6229 117.883 42.6253 117.883 41.8567 117.883 41.1675 117.631 40.551 117.12L40.551 118.499C41.1085 118.833 41.7775 118.986 42.5167 118.986 43.4644 118.936 44.2064 118.704 44.717 118.244L44.7233 118.241ZM50.8137 110.566C49.6106 110.566 48.6427 110.924 47.9239 111.616 47.1612 112.379 46.7504 113.456 46.7504 114.838 46.7504 116.041 47.0822 117.038 47.7714 117.78 48.4902 118.549 49.4348 118.933 50.6377 118.933 51.8697 118.933 52.8088 118.546 53.5274 117.777 54.2462 117.015 54.604 115.988 54.604 114.709 54.604 113.403 54.2696 112.406 53.6064 111.663 52.9144 110.921 51.9929 110.563 50.8194 110.563L50.8137 110.566ZM53.2955 114.761C53.2955 115.735 53.0901 116.501 52.656 117.014 52.2218 117.551 51.5821 117.836 50.7371 117.836 49.9154 117.836 49.279 117.551 48.7919 117.014 48.308 116.475 48.0762 115.735 48.0762 114.761 48.0762 113.735 48.3316 112.943 48.8451 112.408 49.3288 111.898 49.9687 111.64 50.7637 111.64 51.5556 111.64 52.1924 111.898 52.6528 112.408 53.0636 112.972 53.2925 113.737 53.2925 114.761L53.2955 114.761ZM56.7516 118.754 58.0278 118.754 58.0278 111.845 59.8965 111.845 59.8965 110.771 58.0276 110.771 58.0276 109.539C58.0276 108.419 58.4616 107.856 59.3595 107.856 59.6617 107.856 59.9698 107.932 60.1987 108.061L60.1987 106.908C59.9698 106.805 59.6617 106.782 59.2771 106.782 58.5878 106.782 58.0247 106.988 57.5639 107.422 57.0269 107.932 56.7426 108.595 56.7426 109.493L56.7426 110.801 55.3927 110.801 55.3927 111.875 56.7426 111.875 56.7426 118.758 56.7516 118.754ZM61.9939 116.577C61.9939 118.138 62.6836 118.933 64.0916 118.933 64.6022 118.933 64.9864 118.851 65.2944 118.669L65.2944 117.572C65.0599 117.748 64.781 117.83 64.4731 117.83 64.0391 117.83 63.7339 117.727 63.5548 117.495 63.3729 117.267 63.2703 116.879 63.2703 116.345L63.2703 111.842 65.2943 111.842 65.2943 110.768 63.2703 110.768 63.2703 108.416C62.8302 108.568 62.3991 108.698 61.9911 108.826L61.9911 110.768 60.6122 110.768 60.6122 111.842 61.9911 111.842 61.9911 116.574 61.9939 116.577ZM199.292 131.287C198.858 130.876 198.343 130.671 197.708 130.671 197.062 130.671 196.528 130.876 196.094 131.316 195.659 131.747 195.454 132.284 195.454 132.9 195.454 133.54 195.659 134.074 196.091 134.485 196.525 134.895 197.058 135.101 197.705 135.101 198.341 135.101 198.878 134.895 199.318 134.461 199.749 134.021 199.978 133.514 199.978 132.877 199.955 132.232 199.722 131.698 199.289 131.287L199.292 131.287ZM199.086 134.309C198.705 134.69 198.241 134.866 197.678 134.866 197.12 134.866 196.658 134.69 196.27 134.309 195.888 133.921 195.682 133.437 195.682 132.871 195.682 132.314 195.86 131.85 196.247 131.463 196.628 131.082 197.088 130.905 197.678 130.905 198.235 130.905 198.699 131.082 199.086 131.463 199.468 131.85 199.673 132.314 199.673 132.871 199.673 133.464 199.497 133.921 199.086 134.309ZM197.936 133.003C198.165 132.95 198.348 132.848 198.473 132.722 198.602 132.589 198.649 132.41 198.649 132.205 198.649 131.977 198.576 131.795 198.421 131.668 198.245 131.522 197.961 131.442 197.599 131.442L196.784 131.442 196.784 134.306 197.195 134.306 197.195 133.103 197.449 133.103C197.626 133.103 197.802 133.279 197.961 133.613L198.265 134.303 198.752 134.303 198.371 133.534C198.239 133.199 198.086 133.047 197.931 132.997L197.936 133.003ZM197.655 132.745 197.215 132.745 197.215 131.777 197.575 131.777C197.831 131.777 198.009 131.824 198.112 131.903 198.215 131.979 198.238 132.079 198.238 132.261 198.238 132.593 198.034 132.745 197.652 132.745L197.655 132.745ZM126.28 110.44 126.638 110.44 126.638 107.574 127.586 107.574 127.586 107.216 125.333 107.216 125.333 107.574 126.281 107.574 126.281 110.44 126.28 110.44ZM128.451 108.287C128.451 108.008 128.451 107.779 128.431 107.65 128.454 107.802 128.507 107.905 128.531 107.982L129.631 110.44 129.807 110.44 130.91 107.958C130.939 107.882 130.963 107.782 131.013 107.65 130.989 107.905 130.989 108.11 130.989 108.266L130.989 110.437 131.371 110.437 131.371 107.216 130.91 107.216 129.913 109.44C129.889 109.519 129.81 109.674 129.76 109.85L129.731 109.85C129.71 109.747 129.657 109.645 129.584 109.469L128.586 107.216 128.07 107.216 128.07 110.443 128.431 110.443 128.431 108.29 128.451 108.287Z" fill="#231F1F" transform="matrix(1 0 0 1.00198 95.0111 713)"/></g></svg>