<svg width="172" height="172" xmlns="http://www.w3.org/2000/svg" xmlns:xlink="http://www.w3.org/1999/xlink" xml:space="preserve" overflow="hidden"><g transform="translate(-95 -695)"><path d="M96.6203 696.161 265.839 696.161 265.839 865.38 96.6203 865.38Z" fill="#F7DF1E"/><path d="M141.127 837.563 154.062 829.728C156.565 834.179 158.837 837.888 164.261 837.888 169.5 837.888 172.792 835.848 172.792 827.873L172.792 773.863 188.694 773.863 188.694 828.152C188.694 844.61 179.051 852.12 164.957 852.12 152.254 852.12 144.882 845.537 141.127 837.563"/><path d="M197.363 835.848 210.298 828.337C213.729 833.9 218.133 837.98 225.968 837.98 232.551 837.98 236.77 834.689 236.77 830.145 236.77 824.675 232.459 822.774 225.18 819.575L221.193 817.859C209.742 812.992 202.092 806.826 202.092 793.891 202.092 781.976 211.179 772.889 225.365 772.889 235.472 772.889 242.751 776.413 247.99 785.592L235.611 793.52C232.876 788.652 229.955 786.705 225.412 786.705 220.776 786.705 217.808 789.672 217.808 793.52 217.808 798.295 220.776 800.242 227.591 803.163L231.578 804.878C245.115 810.673 252.718 816.561 252.718 829.867 252.718 844.193 241.453 852.028 226.385 852.028 211.55 852.12 201.999 845.073 197.363 835.848"/></g></svg>