<svg width="198" height="185" xmlns="http://www.w3.org/2000/svg" xmlns:xlink="http://www.w3.org/1999/xlink" xml:space="preserve" overflow="hidden"><defs><clipPath id="clip0"><rect x="95" y="142" width="198" height="185"/></clipPath></defs><g clip-path="url(#clip0)" transform="translate(-95 -142)"><path d="M268.91 119.664C268.91 106.547 252.484 94.1166 227.3 86.4081 233.112 60.7399 230.529 40.3184 219.148 33.7803 216.525 32.2466 213.457 31.5202 210.108 31.5202L210.108 40.5202C211.964 40.5202 213.457 40.8834 214.709 41.5695 220.197 44.7175 222.578 56.704 220.722 72.1211 220.278 75.9148 219.552 79.9103 218.664 83.9865 210.753 82.0493 202.117 80.5561 193.036 79.5874 187.587 72.1211 181.937 65.3408 176.247 59.4081 189.404 47.1794 201.753 40.4798 210.148 40.4798L210.148 31.4798C199.049 31.4798 184.52 39.3901 169.83 53.1121 155.139 39.4709 140.61 31.6413 129.511 31.6413L129.511 40.6413C137.865 40.6413 150.256 47.3004 163.413 59.4484 157.762 65.3812 152.112 72.1211 146.744 79.5874 137.623 80.5561 128.987 82.0493 121.076 84.0269 120.148 79.991 119.462 76.0762 118.978 72.3229 117.081 56.9058 119.422 44.9193 124.87 41.7309 126.081 41.0045 127.655 40.6816 129.511 40.6816L129.511 31.6816C126.121 31.6816 123.054 32.4081 120.39 33.9417 109.049 40.4798 106.507 60.861 112.359 86.4484 87.2556 94.1973 70.9103 106.587 70.9103 119.664 70.9103 132.78 87.3363 145.211 112.52 152.919 106.709 178.587 109.291 199.009 120.673 205.547 123.296 207.081 126.363 207.807 129.753 207.807 140.852 207.807 155.381 199.897 170.072 186.175 184.762 199.816 199.291 207.646 210.39 207.646 213.78 207.646 216.848 206.919 219.511 205.386 230.852 198.848 233.395 178.466 227.543 152.879 252.565 145.17 268.91 132.74 268.91 119.664ZM216.363 92.7444C214.87 97.9507 213.013 103.318 210.915 108.686 209.26 105.457 207.525 102.229 205.628 99 203.771 95.7713 201.794 92.6233 199.816 89.556 205.547 90.4036 211.076 91.4529 216.363 92.7444ZM197.879 135.726C194.731 141.175 191.502 146.341 188.152 151.143 182.139 151.668 176.045 151.951 169.91 151.951 163.816 151.951 157.722 151.668 151.749 151.184 148.399 146.381 145.13 141.256 141.982 135.848 138.915 130.561 136.13 125.193 133.587 119.785 136.09 114.377 138.915 108.969 141.942 103.682 145.09 98.2332 148.318 93.0673 151.668 88.2646 157.682 87.7399 163.776 87.4574 169.91 87.4574 176.004 87.4574 182.099 87.7399 188.072 88.2242 191.422 93.0269 194.691 98.1525 197.839 103.561 200.906 108.848 203.691 114.215 206.233 119.623 203.691 125.031 200.906 130.439 197.879 135.726ZM210.915 130.48C213.094 135.888 214.951 141.296 216.484 146.543 211.197 147.834 205.628 148.924 199.857 149.771 201.834 146.664 203.812 143.475 205.668 140.206 207.525 136.978 209.26 133.709 210.915 130.48ZM169.991 173.543C166.238 169.668 162.484 165.35 158.771 160.628 162.404 160.789 166.117 160.91 169.87 160.91 173.664 160.91 177.417 160.83 181.09 160.628 177.457 165.35 173.704 169.668 169.991 173.543ZM139.964 149.771C134.233 148.924 128.704 147.874 123.417 146.583 124.91 141.377 126.767 136.009 128.865 130.641 130.52 133.87 132.256 137.099 134.152 140.327 136.049 143.556 137.987 146.704 139.964 149.771ZM169.789 65.7848C173.543 69.6592 177.296 73.9776 181.009 78.6995 177.377 78.5381 173.664 78.417 169.91 78.417 166.117 78.417 162.363 78.4978 158.691 78.6995 162.323 73.9776 166.076 69.6592 169.789 65.7848ZM139.924 89.556C137.946 92.6637 135.969 95.852 134.112 99.1211 132.256 102.35 130.52 105.578 128.865 108.807 126.686 103.399 124.83 97.991 123.296 92.7444 128.583 91.4933 134.152 90.4036 139.924 89.556ZM103.399 140.085C89.1121 133.991 79.8699 126 79.8699 119.664 79.8699 113.327 89.1121 105.296 103.399 99.2421 106.87 97.7489 110.664 96.417 114.578 95.1659 116.879 103.076 119.906 111.309 123.659 119.744 119.946 128.139 116.96 136.332 114.7 144.202 110.704 142.951 106.91 141.578 103.399 140.085ZM125.112 197.758C119.623 194.61 117.242 182.623 119.099 167.206 119.543 163.413 120.269 159.417 121.157 155.341 129.067 157.278 137.704 158.771 146.785 159.74 152.233 167.206 157.883 173.987 163.574 179.919 150.417 192.148 138.067 198.848 129.673 198.848 127.856 198.807 126.323 198.444 125.112 197.758ZM220.843 167.004C222.74 182.422 220.399 194.408 214.951 197.596 213.74 198.323 212.166 198.646 210.309 198.646 201.955 198.646 189.565 191.987 176.408 179.839 182.058 173.906 187.709 167.166 193.076 159.7 202.197 158.731 210.834 157.238 218.744 155.26 219.673 159.336 220.399 163.251 220.843 167.004ZM236.381 140.085C232.91 141.578 229.117 142.91 225.202 144.161 222.901 136.251 219.874 128.018 216.121 119.583 219.834 111.188 222.821 102.996 225.081 95.1256 229.076 96.3767 232.87 97.7489 236.422 99.2421 250.709 105.336 259.951 113.327 259.951 119.664 259.91 126 250.668 134.031 236.381 140.085Z" fill="#61DAFB" transform="matrix(1 0 0 -1.00191 24.0897 354.842)"/><path d="M188.314 119.664C188.314 129.85 180.056 138.108 169.87 138.108 159.684 138.108 151.426 129.85 151.426 119.664 151.426 109.477 159.684 101.22 169.87 101.22 180.056 101.22 188.314 109.477 188.314 119.664Z" fill="#61DAFB" transform="matrix(1 0 0 -1.00191 24.0897 354.842)"/></g></svg>